<!--background for the main page-->

<svg width="1920" height="1080" xmlns="http://www.w3.org/2000/svg"><defs><linearGradient id="a" gradientTransform="rotate(90)"><stop offset="5%" stop-color="#3f3f3f"/><stop offset="95%" stop-color="#6f6f6f"/></linearGradient><linearGradient id="b" gradientTransform="rotate(90)"><stop offset="5%" stop-color="#3a3a3a"/><stop offset="95%" stop-color="#6b6b6b"/></linearGradient><linearGradient id="c" gradientTransform="rotate(90)"><stop offset="5%" stop-color="#353535"/><stop offset="95%" stop-color="#676767"/></linearGradient><linearGradient id="d" gradientTransform="rotate(90)"><stop offset="5%" stop-color="#313131"/><stop offset="95%" stop-color="#646464"/></linearGradient><linearGradient id="e" gradientTransform="rotate(90)"><stop offset="5%" stop-color="#2e2e2e"/><stop offset="95%" stop-color="#626262"/></linearGradient><linearGradient id="f" gradientTransform="rotate(90)"><stop offset="5%" stop-color="#303030"/><stop offset="95%" stop-color="#636363"/></linearGradient><linearGradient id="g" gradientTransform="rotate(90)"><stop offset="5%" stop-color="#323232"/><stop offset="95%" stop-color="#656565"/></linearGradient><linearGradient id="h" gradientTransform="rotate(90)"><stop offset="5%" stop-color="#353535"/><stop offset="95%" stop-color="#676767"/></linearGradient><linearGradient id="i" gradientTransform="rotate(90)"><stop offset="5%" stop-color="#373737"/><stop offset="95%" stop-color="#696969"/></linearGradient><linearGradient id="j" gradientTransform="rotate(90)"><stop offset="5%" stop-color="#3a3a3a"/><stop offset="95%" stop-color="#6b6b6b"/></linearGradient><linearGradient id="k" gradientTransform="rotate(90)"><stop offset="5%" stop-color="#3d3d3d"/><stop offset="95%" stop-color="#6d6d6d"/></linearGradient><linearGradient id="l" gradientTransform="rotate(90)"><stop offset="5%" stop-color="#404040"/><stop offset="95%" stop-color="#6f6f6f"/></linearGradient><linearGradient id="m" gradientTransform="rotate(90)"><stop offset="5%" stop-color="#434343"/><stop offset="95%" stop-color="#727272"/></linearGradient><linearGradient id="n" gradientTransform="rotate(90)"><stop offset="5%" stop-color="#464646"/><stop offset="95%" stop-color="#747474"/></linearGradient><linearGradient id="o" gradientTransform="rotate(90)"><stop offset="5%" stop-color="#444"/><stop offset="95%" stop-color="#727272"/></linearGradient><linearGradient id="p" gradientTransform="rotate(90)"><stop offset="5%" stop-color="#414141"/><stop offset="95%" stop-color="#707070"/></linearGradient><linearGradient id="q" gradientTransform="rotate(90)"><stop offset="5%" stop-color="#3d3d3d"/><stop offset="95%" stop-color="#6d6d6d"/></linearGradient><linearGradient id="r" gradientTransform="rotate(90)"><stop offset="5%" stop-color="#3a3a3a"/><stop offset="95%" stop-color="#6b6b6b"/></linearGradient><linearGradient id="s" gradientTransform="rotate(90)"><stop offset="5%" stop-color="#363636"/><stop offset="95%" stop-color="#686868"/></linearGradient></defs><path fill="#444" d="M0 0h1920v1080H0z"/><path d="M0 54c17.435 3.446 34.87 6.893 54 7 19.13.107 39.952-3.125 64-8 24.048-4.875 51.321-11.392 76-12 24.679-.608 46.763 4.692 69 6 22.237 1.308 44.627-1.376 66-3 21.373-1.624 41.73-2.188 61 1 19.27 3.188 37.455 10.128 59 9 21.545-1.128 46.452-10.325 65-13 18.548-2.675 30.736 1.173 52 4s51.603 4.633 73 6 33.853 2.296 56 1c22.147-1.296 53.986-4.817 79-6 25.014-1.183 43.203-.027 64-1 20.797-.973 44.201-4.074 65-4 20.799.074 38.993 3.322 61 5 22.007 1.678 47.828 1.786 66 8 18.172 6.214 28.695 18.533 51 14 22.305-4.533 56.39-25.918 80-26 23.61-.082 36.743 21.138 56 24 19.257 2.862 44.637-12.636 68-16 23.363-3.364 44.708 5.404 63 9s33.53 2.02 53 1 43.169-1.482 66-2c22.831-.518 44.793-1.093 68 0s47.658 3.853 69 8 39.575 9.68 60 4c20.425-5.68 43.042-22.574 66-28 22.958-5.426 46.258.616 65 3 18.742 2.384 32.926 1.11 53 2 20.074.89 46.037 3.945 112 7l-40 1026H0Z" fill="url(#a)"/><path d="M0 108c25.676-2.017 51.351-4.035 71-7s33.27-6.88 53-6c19.73.88 45.568 6.551 70 12 24.432 5.449 47.46 10.675 68 7 20.54-3.675 38.595-16.25 60-19s46.161 4.324 67 8 37.76 3.955 58 7c20.24 3.045 43.798 8.857 66 6 22.202-2.857 43.048-14.384 65-14 21.952.384 45.011 12.68 64 17 18.989 4.32 33.908.667 56-6s51.358-16.349 73-17c21.642-.651 35.66 7.727 56 12 20.34 4.273 47.002 4.44 72 8 24.998 3.56 48.333 10.516 69 7s38.665-17.504 60-24c21.335-6.496 46.007-5.5 65 1 18.993 6.5 32.307 18.505 52 22 19.693 3.495 45.764-1.518 71-8 25.236-6.482 49.636-14.432 70-15 20.364-.568 36.69 6.248 55 9 18.31 2.752 38.601 1.44 61-2s46.904-9.012 68-4c21.096 5.012 38.781 20.605 63 19 24.219-1.605 54.971-20.41 76-27 21.029-6.59 32.334-.965 50-1 17.666-.035 41.694-5.731 62 0 20.306 5.731 36.89 22.89 61 23 24.11.11 55.746-16.825 80-21 24.254-4.175 41.127 4.413 98 13l-40 972H0Z" fill="url(#b)"/><path d="M0 162c25.167-5.493 50.334-10.986 73-7 22.666 3.986 42.831 17.453 60 15 17.169-2.453 31.34-20.824 54-21 22.66-.176 53.807 17.845 75 23 21.193 5.155 32.433-2.555 52-6s47.462-2.627 71-5c23.538-2.373 42.72-7.939 64-11s44.655-3.618 68 2 46.66 17.412 68 16c21.34-1.412 40.705-16.03 61-15 20.295 1.03 41.52 17.71 59 17 17.48-.71 31.217-18.806 54-22 22.783-3.194 54.613 8.515 78 16 23.387 7.485 38.331 10.745 58 10 19.669-.745 44.062-5.495 68-8 23.938-2.505 47.422-2.765 69-5 21.578-2.235 41.249-6.445 59-9 17.751-2.555 33.582-3.453 54-1s45.423 8.258 70 14c24.577 5.742 48.725 11.42 72 11 23.275-.42 45.678-6.94 66-10 20.322-3.06 38.564-2.664 58-1 19.436 1.664 40.065 4.594 59 3 18.935-1.594 36.177-7.711 61-6 24.823 1.711 57.228 11.25 77 11s26.911-10.29 46-16c19.089-5.71 50.127-7.087 75-6 24.873 1.087 43.581 4.639 62 7 18.419 2.361 36.548 3.532 58 4 21.452.468 46.226.234 111 0l-40 918H0Z" fill="url(#c)"/><path d="M0 216c24.657 4.74 49.314 9.481 72 6s43.4-15.184 64-17c20.6-1.816 41.086 6.255 58 6 16.914-.255 30.257-8.836 53-5 22.743 3.836 54.886 20.087 76 22 21.114 1.913 31.198-10.514 51-15 19.802-4.486 49.321-1.032 74 1 24.679 2.032 44.517 2.642 66 6 21.483 3.358 44.612 9.465 63 5 18.388-4.465 32.036-19.5 54-25s52.243-1.464 76 3c23.757 4.464 40.99 9.356 62 16 21.01 6.644 45.795 15.039 66 11s35.828-20.51 58-21c22.172-.49 50.893 15.005 74 14 23.107-1.005 40.601-18.508 59-17 18.399 1.508 37.703 22.027 56 24 18.297 1.973 35.588-14.598 61-22 25.412-7.402 58.945-5.633 82-5s35.63.13 56 2c20.37 1.87 48.533 6.11 69 9 20.467 2.89 33.239 4.432 51 3 17.761-1.432 40.513-5.835 63-6 22.487-.165 44.709 3.91 66 4 21.291.09 41.652-3.805 61-9s37.684-11.69 63-7c25.316 4.69 57.61 20.566 81 26 23.39 5.434 37.874.424 59-3 21.126-3.424 48.893-5.264 71-6 22.107-.736 38.553-.368 95 0l-40 864H0Z" fill="url(#d)"/><path d="M0 270c20.193 7.686 40.386 15.373 64 11 23.614-4.373 50.65-20.804 72-21 21.35-.196 37.015 15.845 56 21 18.985 5.155 41.291-.575 63-6 21.709-5.425 42.821-10.544 62-9 19.179 1.544 36.425 9.752 61 13 24.575 3.248 56.479 1.537 78-6s32.66-20.899 53-17c20.34 3.899 49.88 25.057 75 28 25.12 2.943 45.818-12.331 64-19 18.182-6.669 33.847-4.732 51-1s35.795 9.259 61 11c25.205 1.741 56.972-.304 80-4s37.315-9.042 56-9c18.685.042 41.767 5.473 61 6 19.233.527 34.616-3.85 58-8s54.77-8.076 80-5c25.23 3.076 44.306 13.152 64 13 19.694-.152 40.008-10.532 62-7 21.992 3.532 45.661 20.977 64 21 18.339.023 31.347-17.375 51-24s45.952-2.477 69 2c23.048 4.477 42.844 9.282 67 10s52.672-2.65 73 1c20.328 3.65 32.47 14.32 53 14 20.53-.32 49.452-11.63 70-12 20.548-.37 32.724 10.2 53 7 20.276-3.2 48.651-20.17 72-26 23.349-5.83 41.671-.523 62 4s42.664 8.262 105 12l-40 810H0Z" fill="url(#e)"/><path d="M0 324c23.39 3.093 46.78 6.187 65 6 18.22-.187 31.268-3.654 53-8s52.146-9.57 77-7c24.854 2.57 44.146 12.933 64 12 19.854-.933 40.269-13.162 59-19 18.731-5.838 35.78-5.283 57 1s46.614 18.296 72 19c25.386.704 50.764-9.9 69-11 18.236-1.1 29.332 7.304 51 7 21.668-.304 53.91-9.317 79-13 25.09-3.683 43.027-2.037 62 1s38.982 7.464 59 7c20.018-.464 40.046-5.82 64-5 23.954.82 51.835 7.817 71 13s29.612 8.551 51 8c21.388-.551 53.715-5.023 77-5 23.285.023 37.528 4.541 55 5 17.472.459 38.172-3.141 62-5 23.828-1.859 50.785-1.975 74-2 23.215-.025 42.688.042 65 0 22.312-.042 47.463-.195 65 1s27.46 3.736 49 6 54.698 4.251 78-2 36.75-20.74 56-20c19.25.74 44.306 16.711 66 16 21.694-.711 40.029-18.105 60-17 19.971 1.105 41.58 20.709 64 23 22.42 2.291 45.652-12.73 69-17s46.814 2.208 68 5 40.093 1.896 99 1l-40 756H0Z" fill="url(#f)"/><path d="M0 378c18.944 6.212 37.889 12.424 57 8 19.111-4.424 38.389-19.485 61-17 22.611 2.485 48.556 22.516 72 22 23.444-.516 44.388-21.58 64-26 19.612-4.42 37.893 7.804 60 11 22.107 3.196 48.039-2.635 72-3 23.961-.365 45.95 4.736 66 4 20.05-.736 38.159-7.31 60-11 21.841-3.69 47.415-4.493 71-5 23.585-.507 45.18-.717 64 5s34.863 17.36 55 18c20.137.64 44.368-9.725 64-17 19.632-7.275 34.666-11.46 56-5 21.334 6.46 48.969 23.567 75 28s50.46-3.81 70-6 34.194 1.669 54 4c19.806 2.331 44.764 3.133 67 2 22.236-1.133 41.75-4.2 65-3 23.25 1.2 50.234 6.67 71 4s35.314-13.48 55-18 44.51-2.748 66-1c21.49 1.748 39.646 3.472 61 8 21.354 4.528 45.906 11.862 69 9s44.731-15.918 66-18c21.269-2.082 42.169 6.81 63 8 20.831 1.19 41.593-5.319 61-8 19.407-2.681 37.46-1.533 56 2s37.569 9.451 61 13c23.431 3.549 51.266 4.728 75 3 23.734-1.728 43.367-6.364 103-11l-40 702H0Z" fill="url(#g)"/><path d="M0 432c16.93.89 33.861 1.782 57 2 23.139.218 52.485-.236 73-5s32.199-13.84 53-10c20.801 3.84 50.72 20.593 77 26s48.922-.531 66-2c17.078-1.469 28.59 1.532 50 0s52.714-7.595 77-10c24.286-2.405 41.551-1.151 63-5 21.449-3.849 47.08-12.8 68-12 20.92.8 37.13 11.35 56 18 18.87 6.65 40.403 9.402 63 7 22.597-2.402 46.258-9.956 68-17 21.742-7.044 41.565-13.576 64-9 22.435 4.576 47.483 20.261 65 25 17.517 4.739 27.505-1.468 50 0s57.498 10.61 82 8c24.502-2.61 38.504-16.972 54-21 15.496-4.028 32.487 2.279 57 3 24.513.721 56.547-4.142 79-1 22.453 3.142 35.324 14.29 56 19 20.676 4.71 49.158 2.98 72-3s40.043-16.207 61-22c20.957-5.793 45.671-7.15 67-2s39.273 16.81 59 19c19.727 2.19 41.238-5.087 64-11s46.776-10.46 65-9c18.224 1.46 30.658 8.927 52 10 21.342 1.073 51.592-4.25 77-3s45.974 9.071 66 11c20.026 1.929 39.513-2.036 99-6l-40 648H0Z" fill="url(#h)"/><path d="M0 486c24.682-1.53 49.363-3.06 71-4s40.228-1.29 61-5 43.725-10.782 65-6 40.87 21.417 63 29c22.13 7.583 46.792 6.113 65 0s29.961-16.868 49-20c19.039-3.132 45.364 1.36 69 4 23.636 2.64 44.585 3.426 67 0s46.297-11.064 68-8c21.703 3.064 41.227 16.831 60 21 18.773 4.169 36.794-1.26 57-9 20.206-7.74 42.596-17.788 65-15 22.404 2.788 44.821 18.411 69 18 24.179-.411 50.12-16.857 71-21 20.88-4.143 36.702 4.017 59 11 22.298 6.983 51.074 12.79 71 12 19.926-.79 31-8.179 52-13s51.924-7.075 75-2 38.305 17.48 60 20c21.695 2.52 49.856-4.845 71-5 21.144-.155 35.272 6.898 55 4 19.728-2.898 45.057-15.749 70-21 24.943-5.251 49.5-2.903 68 5 18.5 7.903 30.945 21.362 48 17 17.055-4.362 38.722-26.546 64-27 25.278-.454 54.168 20.82 76 26s36.604-5.735 58-10 49.414-1.879 73-1 42.739.251 62 0c19.261-.251 38.63-.126 98 0l-40 594H0Z" fill="url(#i)"/><path d="M0 540c18.896-10.441 37.792-20.882 61-16 23.208 4.882 50.729 25.089 74 27 23.271 1.911 42.293-14.472 60-17 17.707-2.528 34.101 8.8 56 13 21.899 4.2 49.304 1.272 73 1 23.696-.272 43.685 2.11 63 2 19.315-.11 37.957-2.714 62-4s53.487-1.254 72-6c18.513-4.746 26.093-14.271 47-17 20.907-2.729 55.139 1.339 81 8 25.861 6.661 43.35 15.917 60 14 16.65-1.917 32.458-15.007 51-19 18.542-3.993 39.817 1.11 64 2 24.183.89 51.275-2.434 76 2s47.083 16.626 65 15c17.917-1.626 31.394-17.071 51-17 19.606.071 45.341 15.658 67 22 21.659 6.342 39.242 3.438 60 0 20.758-3.438 44.692-7.412 70-5s51.99 11.208 73 11c21.01-.208 36.345-9.422 57-14 20.655-4.578 46.63-4.52 67-6 20.37-1.48 35.138-4.499 56-2 20.862 2.499 47.818 10.516 71 14 23.182 3.484 42.59 2.436 63-1 20.41-3.436 41.823-9.26 61-12s36.12-2.394 59-3c22.88-.606 51.699-2.163 75-1 23.301 1.163 41.086 5.047 61 7 19.914 1.953 41.957 1.977 104 2l-40 540H0Z" fill="url(#j)"/><path d="M0 594c16.97-.247 33.94-.493 57-1 23.06-.507 52.21-1.273 74 0s36.217 4.587 58 4c21.783-.587 50.921-5.075 75-7 24.079-1.925 43.098-1.289 60-4 16.902-2.711 31.688-8.77 53-6 21.312 2.77 49.15 14.368 73 15 23.85.632 43.712-9.703 62-9 18.288.703 35.003 12.444 57 13 21.997.556 49.277-10.073 75-16s49.888-7.152 67-1c17.112 6.152 27.17 19.681 47 18 19.83-1.681 49.428-18.572 73-20 23.572-1.428 41.115 12.607 61 17 19.885 4.393 42.11-.858 63-1 20.89-.142 40.443 4.823 64 8 23.557 3.177 51.116 4.564 74-1s41.093-18.08 59-24c17.907-5.92 35.514-5.244 55 2 19.486 7.244 40.852 21.058 66 26 25.148 4.942 54.079 1.013 77 0s39.833.89 61 1c21.167.11 46.59-1.57 67-8 20.41-6.43 35.808-17.607 54-22 18.192-4.393 39.18-2.002 62-1 22.82 1.002 47.474.614 68 1 20.526.386 36.925 1.547 59 0 22.075-1.547 49.828-5.801 72 0 22.172 5.801 38.763 21.657 59 26 20.237 4.343 44.118-2.829 108-10l-40 486H0Z" fill="url(#k)"/><path d="M0 648c18.033 6.755 36.066 13.51 57 14 20.934.49 44.769-5.282 66-7s39.86.619 64-2c24.14-2.619 53.793-10.194 75-11 21.207-.806 33.97 5.156 56 4 22.03-1.156 53.33-9.432 74-13 20.67-3.568 30.711-2.428 47 0s38.825 6.144 65 11c26.175 4.856 55.988 10.851 78 12 22.012 1.149 36.223-2.548 54-5s39.12-3.658 61-1c21.88 2.658 44.296 9.18 65 9 20.704-.18 39.695-7.059 64-7 24.305.059 53.923 7.055 76 9 22.077 1.945 36.612-1.163 58-9 21.388-7.837 49.63-20.404 69-18 19.37 2.404 29.87 19.78 51 20 21.13.22 52.89-16.712 75-15 22.11 1.712 34.572 22.07 55 24 20.428 1.93 48.824-14.57 73-25 24.176-10.43 44.132-14.793 63-6 18.868 8.793 36.649 30.742 60 30 23.351-.742 52.273-24.176 73-25 20.727-.824 33.258 20.961 51 26 17.742 5.039 40.696-6.668 63-9 22.304-2.332 43.957 4.712 64 4 20.043-.712 38.475-9.18 61-13 22.525-3.82 49.141-2.99 71-5s38.96-6.86 60-6c21.04.86 46.02 7.43 111 14l-40 432H0Z" fill="url(#l)"/><path d="M0 702c16.134 1.31 32.269 2.62 57 6s58.06 8.832 80 5c21.94-3.832 32.494-16.947 48-22 15.506-5.053 35.963-2.043 62-1 26.037 1.043 57.653.117 82 3s41.425 9.573 60 13c18.575 3.427 38.646 3.592 57 1s34.99-7.941 59-11c24.01-3.059 55.39-3.826 79-3 23.61.826 39.447 3.247 58 3 18.553-.247 39.823-3.161 63-2s48.263 6.399 68 6c19.737-.399 34.125-6.433 51-9s36.238-1.665 62 0 57.922 4.094 79 9c21.078 4.906 31.073 12.29 53 12 21.927-.29 55.786-8.252 78-11 22.214-2.748 32.782-.28 50-2 17.218-1.72 41.085-7.628 67-6 25.915 1.628 53.877 10.792 73 12 19.123 1.208 29.406-5.54 50-11s51.498-9.63 73-8c21.502 1.63 33.602 9.058 54 9 20.398-.058 49.094-7.604 75-5s49.023 15.358 68 15c18.977-.358 33.814-13.828 56-19 22.186-5.172 51.72-2.046 75 2 23.28 4.046 40.306 9.012 59 8 18.694-1.012 39.055-8.004 60-8 20.945.004 42.472 7.002 104 14l-40 378H0Z" fill="url(#m)"/><path d="M0 756c18.74 5.51 37.48 11.022 61 7 23.52-4.022 51.822-17.576 76-17 24.178.576 44.232 15.284 63 18 18.768 2.716 36.25-6.558 55-12s38.765-7.05 60-7c21.235.05 43.69 1.761 64 7 20.31 5.239 38.474 14.005 60 14 21.526-.005 46.413-8.782 69-11 22.587-2.218 42.873 2.122 65 4 22.127 1.878 46.096 1.294 67-4 20.904-5.294 38.743-15.3 60-11 21.257 4.3 45.932 22.902 70 25 24.068 2.098 47.53-12.309 70-16 22.47-3.691 43.945 3.333 61 5 17.055 1.667 29.688-2.024 50-3s48.301.764 73 1c24.699.236 46.108-1.03 66 1 19.892 2.03 38.269 7.357 61 9 22.731 1.643 49.817-.399 72-1s39.463.238 61 4 47.331 10.445 67 3c19.669-7.445 33.212-29.02 51-28 17.788 1.02 39.822 24.634 65 28 25.178 3.366 53.501-13.517 77-17 23.499-3.483 42.174 6.434 61 5 18.826-1.434 37.804-14.218 61-15 23.196-.782 50.61 10.44 71 12 20.39 1.56 33.76-6.542 54-6 20.24.542 47.355 9.726 70 12 22.645 2.274 40.823-2.363 99-7l-40 324H0Z" fill="url(#n)"/><path d="M0 810c22.063-6.963 44.127-13.925 65-10 20.873 3.925 40.556 18.738 60 21 19.444 2.262 38.649-8.027 59-8 20.351.027 41.85 10.371 64 12 22.15 1.629 44.953-5.458 68-12 23.047-6.542 46.337-12.54 69-14 22.663-1.46 44.7 1.616 66 3 21.3 1.384 41.863 1.075 60 0s33.846-2.917 58-4c24.154-1.083 56.752-1.408 78 3 21.248 4.408 31.146 13.55 53 15 21.854 1.45 55.662-4.789 77-7 21.338-2.211 30.204-.394 51-3s53.521-9.633 74-8c20.479 1.633 28.71 11.928 51 14 22.29 2.072 58.636-4.079 80-3 21.364 1.079 27.746 9.388 47 8s51.38-12.473 73-18c21.62-5.527 32.737-5.496 53-5 20.263.496 49.674 1.458 73 3s40.568 3.664 62 10c21.432 6.336 47.054 16.887 71 18 23.946 1.113 46.214-7.211 67-11 20.786-3.789 40.089-3.041 58-2s34.431 2.377 57 3c22.569.623 51.185.534 76-4 24.815-4.534 45.827-13.514 67-17 21.173-3.486 42.508-1.477 64 6 21.492 7.477 43.14 20.422 63 23 19.86 2.578 37.93-5.211 96-13l-40 270H0Z" fill="url(#o)"/><path d="M0 864c21.808-6.542 43.615-13.085 66-15 22.385-1.915 45.347.796 69 3 23.653 2.204 47.996 3.9 66 8 18.004 4.1 29.667 10.601 47 13 17.333 2.399 40.336.695 66 2 25.664 1.305 53.99 5.62 74 4 20.01-1.62 31.702-9.174 50-12 18.298-2.826 43.201-.922 66 2s43.493 6.863 64 3c20.507-3.863 40.827-15.53 65-15 24.173.53 52.198 13.254 77 17 24.802 3.746 46.381-1.486 66-7s37.277-11.31 57-9c19.723 2.31 41.512 12.726 64 16 22.488 3.274 45.675-.595 65-7 19.325-6.405 34.789-15.345 57-12 22.211 3.345 51.17 18.976 72 18 20.83-.976 33.532-18.558 51-21 17.468-2.442 39.702 10.258 66 18 26.298 7.742 56.662 10.527 77 7 20.338-3.527 30.651-13.367 50-15 19.349-1.633 47.733 4.939 74 3 26.267-1.939 50.417-12.39 69-13 18.583-.61 31.598 8.619 52 13s48.19 3.915 70 5c21.81 1.085 37.64 3.722 55-2 17.36-5.722 36.251-19.802 63-20 26.749-.198 61.355 13.485 83 18 21.645 4.515 30.327-.139 48-2s44.336-.93 111 0l-40 216H0Z" fill="url(#p)"/><path d="M0 918c25.792-1.103 51.584-2.206 70-2 18.416.206 29.458 1.72 49 4 19.542 2.28 47.586 5.328 70 0s39.199-19.033 60-17c20.801 2.033 45.62 19.802 66 20 20.38.198 36.322-17.177 61-16 24.678 1.177 58.092 20.906 79 21 20.908.094 29.31-19.449 47-23 17.69-3.551 44.669 8.888 67 10 22.331 1.112 40.015-9.104 63-11 22.985-1.896 51.27 4.527 75 13 23.73 8.473 42.901 18.998 63 16 20.099-2.998 41.124-19.517 64-23 22.876-3.483 47.603 6.07 68 10 20.397 3.93 36.464 2.235 56 3 19.536.765 42.54 3.99 65-1s44.378-18.195 64-16c19.622 2.195 36.948 19.79 58 26 21.052 6.21 45.832 1.035 68-1s41.726-.93 63-7 44.265-19.312 66-18c21.735 1.312 42.214 17.177 63 22s41.88-1.396 64-7c22.12-5.604 45.266-10.591 69-9 23.734 1.591 48.054 9.762 71 10 22.946.238 44.516-7.455 62-10s30.882.06 48-2 37.955-8.785 64-5 57.299 18.082 81 22c23.701 3.918 39.85-2.54 96-9l-40 162H0Z" fill="url(#q)"/><path d="M0 972c23.944-5.351 47.888-10.702 69-9 21.112 1.702 39.393 10.458 58 14s37.54 1.87 59-1 45.444-6.937 69-12c23.556-5.063 46.684-11.121 69-6 22.316 5.121 43.82 21.423 64 26 20.18 4.577 39.037-2.57 57-5s35.034-.142 59 0 54.827-1.86 77-7c22.173-5.14 35.657-13.416 56-15 20.343-1.584 47.545 3.524 72 5s46.163-.681 64-3c17.837-2.319 31.803-4.799 52-3 20.197 1.799 46.624 7.876 69 11 22.376 3.124 40.702 3.296 63 8 22.298 4.704 48.569 13.94 72 11 23.431-2.94 44.023-18.058 62-20 17.977-1.942 33.34 9.291 55 9 21.66-.291 49.618-12.108 73-17 23.382-4.892 42.187-2.86 64 2 21.813 4.86 46.635 12.549 67 12 20.365-.549 36.274-9.335 55-11 18.726-1.665 40.27 3.792 61 6 20.73 2.208 40.649 1.169 62 2s44.136 3.534 68 6c23.864 2.466 48.809 4.697 68 2 19.191-2.697 32.629-10.32 55-15 22.371-4.68 53.677-6.414 77-6 23.323.414 38.664 2.975 58 6s42.668 6.512 106 10l-40 108H0Z" fill="url(#r)"/><path d="M0 1026c16.817 9.255 33.635 18.51 55 14 21.365-4.51 47.279-22.786 73-24 25.721-1.214 51.25 14.634 72 18 20.75 3.366 36.718-5.75 55-6 18.282-.25 38.876 8.365 61 8 22.124-.365 45.78-9.71 69-9 23.22.71 46.006 11.474 66 9s37.195-18.186 60-18c22.805.186 51.213 16.272 74 19 22.787 2.728 39.955-7.9 56-8 16.045-.1 30.97 10.33 55 11 24.03.67 57.169-8.423 80-15 22.831-6.577 35.357-10.639 54-6 18.643 4.639 43.405 17.978 67 16 23.595-1.978 46.025-19.274 64-25 17.975-5.726 31.497.116 55 3s56.988 2.808 79 6 32.552 9.65 53 10c20.448.35 50.803-5.409 74-2 23.197 3.409 39.235 15.985 56 15 16.765-.985 34.257-15.531 57-23 22.743-7.469 50.737-7.86 75-4 24.263 3.86 44.797 11.972 65 19 20.203 7.028 40.077 12.971 63 6 22.923-6.971 48.894-26.857 69-25 20.106 1.857 34.346 25.456 56 25 21.654-.456 50.722-24.968 74-25 23.278-.032 40.767 24.414 60 27 19.233 2.586 40.21-16.69 61-23 20.79-6.31 41.395.345 102 7l-40 54H0Z" fill="url(#s)"/></svg>