<svg width="2000" height="1125" xmlns="http://www.w3.org/2000/svg"><defs><linearGradient id="a" gradientTransform="rotate(90)"><stop offset="5%" stop-color="#00305a"/><stop offset="95%" stop-color="#3f6383"/></linearGradient><linearGradient id="b" gradientTransform="rotate(90)"><stop offset="5%" stop-color="#002c55"/><stop offset="95%" stop-color="#3f607f"/></linearGradient><linearGradient id="c" gradientTransform="rotate(90)"><stop offset="5%" stop-color="#002850"/><stop offset="95%" stop-color="#3f5d7b"/></linearGradient><linearGradient id="d" gradientTransform="rotate(90)"><stop offset="5%" stop-color="#01244b"/><stop offset="95%" stop-color="#405a78"/></linearGradient><linearGradient id="e" gradientTransform="rotate(90)"><stop offset="5%" stop-color="#012046"/><stop offset="95%" stop-color="#405774"/></linearGradient><linearGradient id="f" gradientTransform="rotate(90)"><stop offset="5%" stop-color="#011c41"/><stop offset="95%" stop-color="#405470"/></linearGradient><linearGradient id="g" gradientTransform="rotate(90)"><stop offset="5%" stop-color="#01183c"/><stop offset="95%" stop-color="#40516c"/></linearGradient><linearGradient id="h" gradientTransform="rotate(90)"><stop offset="5%" stop-color="#011437"/><stop offset="95%" stop-color="#404e69"/></linearGradient><linearGradient id="i" gradientTransform="rotate(90)"><stop offset="5%" stop-color="#011032"/><stop offset="95%" stop-color="#404b65"/></linearGradient><linearGradient id="j" gradientTransform="rotate(90)"><stop offset="5%" stop-color="#020c2d"/><stop offset="95%" stop-color="#414861"/></linearGradient><linearGradient id="k" gradientTransform="rotate(90)"><stop offset="5%" stop-color="#020828"/><stop offset="95%" stop-color="#41455d"/></linearGradient><linearGradient id="l" gradientTransform="rotate(90)"><stop offset="5%" stop-color="#020423"/><stop offset="95%" stop-color="#41425a"/></linearGradient><linearGradient id="m" gradientTransform="rotate(90)"><stop offset="5%" stop-color="#02001e"/><stop offset="95%" stop-color="#413f56"/></linearGradient></defs><path fill="#00345f" d="M0 0h2000v1125H0z"/><path d="M0 80c43.168-5.156 86.336-10.312 130-14 43.664-3.688 87.825-5.909 141 3 53.175 8.909 115.365 28.947 166 26 50.635-2.947 89.714-28.88 138-30 48.286-1.12 105.777 22.575 150 26 44.223 3.425 75.177-13.42 122-19 46.823-5.58 109.515.104 156 2s76.764.002 126 4c49.236 3.998 117.43 13.887 166 17 48.57 3.113 77.514-.55 118-7 40.486-6.45 92.512-15.688 143-13 50.488 2.688 99.44 17.3 150 19 50.56 1.7 102.732-9.514 152-14 49.268-4.486 95.634-2.243 182 0l-40 1045H0Z" fill="url(#a)"/><path d="M0 160c54.31-3.209 108.62-6.417 155-5 46.38 1.417 84.83 7.46 127 6s88.063-10.422 138-10c49.937.422 103.918 10.228 152 11 48.082.772 90.265-7.49 141-5s110.022 15.73 156 13c45.978-2.73 78.648-21.431 124-22 45.352-.569 103.386 16.994 156 24 52.614 7.006 99.809 3.454 144 3 44.191-.454 85.38 2.19 135-3 49.62-5.19 107.671-18.216 157-24 49.329-5.784 89.935-4.326 134-3 44.065 1.326 91.59 2.522 139 5s94.705 6.24 182 10l-40 965H0Z" fill="url(#b)"/><path d="M0 241c40.97-3.799 81.939-7.598 128-7 46.061.598 97.214 5.592 151 7 53.786 1.408 110.207-.77 161-5 50.793-4.23 95.96-10.513 144-7 48.04 3.513 98.955 16.823 142 17 43.045.177 78.221-12.777 125-11 46.779 1.777 105.16 18.287 157 16 51.84-2.287 97.138-23.371 143-25 45.862-1.629 92.29 16.198 136 24 43.71 7.802 84.704 5.58 129-1 44.296-6.58 91.894-17.516 144-14 52.106 3.516 108.72 21.485 156 22 47.28.515 85.223-16.424 131-22 45.777-5.576 99.389.212 193 6l-40 884H0Z" fill="url(#c)"/><path d="M0 321c56.478 10.809 112.957 21.617 156 16 43.043-5.617 72.652-27.661 119-28 46.348-.339 109.436 21.026 159 23 49.564 1.974 85.603-15.445 130-14 44.397 1.445 97.15 21.753 144 20 46.85-1.753 87.794-25.565 136-31 48.206-5.435 103.672 7.509 151 15s86.518 9.53 138 9c51.482-.53 115.255-3.63 166-7 50.745-3.37 88.462-7.01 132-9 43.538-1.99 92.897-2.327 143 1 50.103 3.327 100.95 10.319 150 14 49.05 3.681 96.3 4.052 142 2 45.7-2.052 89.85-6.526 174-11l-40 804H0Z" fill="url(#d)"/><path d="M0 401c41.37 9.622 82.742 19.243 134 17 51.258-2.243 112.404-16.352 161-26 48.596-9.648 84.643-14.837 126-8s88.023 25.7 141 29c52.977 3.3 112.265-8.963 164-12 51.735-3.037 95.917 3.15 142 4 46.083.85 94.067-3.641 137-8 42.933-4.359 80.814-8.587 128-7 47.186 1.587 103.676 8.988 152 15 48.324 6.012 88.482 10.633 131 8 42.518-2.633 87.397-12.52 139-17 51.603-4.48 109.932-3.552 158 1s85.877 12.73 132 14c46.123 1.27 100.562-4.365 195-10l-40 724H0Z" fill="url(#e)"/><path d="M0 482c54.733.893 109.466 1.785 155-1 45.534-2.785 81.869-9.249 125-7 43.131 2.249 93.059 13.21 145 14 51.941.79 105.897-8.593 157-15 51.103-6.407 99.354-9.838 148-9 48.646.838 97.685 5.947 139 11s74.904 10.051 123 7c48.096-3.051 110.698-14.152 165-16 54.302-1.848 100.302 5.555 139 9 38.698 3.445 70.093 2.931 118 5s112.326 6.72 167 8c54.674 1.28 99.605-.81 146 1 46.395 1.81 94.256 7.517 140 7 45.744-.517 89.372-7.258 173-14l-40 643H0Z" fill="url(#f)"/><path d="M0 562c43.408-6.152 86.816-12.305 136-13 49.184-.695 104.145 4.066 156 10 51.855 5.934 100.606 13.04 144 13 43.394-.04 81.433-7.228 126-11 44.567-3.772 95.663-4.128 147-4 51.337.128 102.914.742 153 6s98.679 15.161 145 11 90.37-22.388 139-25c48.63-2.612 101.843 10.389 148 17 46.157 6.611 85.257 6.832 128 6 42.743-.832 89.127-2.718 138-9 48.873-6.282 100.235-16.96 151-15 50.765 1.96 100.933 16.56 149 21 48.067 4.44 94.034-1.28 180-7l-40 563H0Z" fill="url(#g)"/><path d="M0 642c53.69 2.653 107.381 5.307 156 5 48.619-.307 92.165-3.573 136-7 43.835-3.427 87.96-7.015 134-7 46.04.015 93.999 3.633 142 5 48.001 1.367 96.046.484 149 5 52.954 4.516 110.818 14.43 155 14 44.182-.43 74.683-11.205 121-14 46.317-2.795 108.45 2.389 156 3 47.55.611 80.514-3.35 129-2 48.486 1.35 112.495 8.014 166 4 53.505-4.014 96.506-18.705 141-21 44.494-2.295 90.479 7.805 132 9 41.521 1.195 78.577-6.516 125-7s102.211 6.258 198 13l-40 483H0Z" fill="url(#h)"/><path d="M0 723c39.367-4.444 78.735-8.888 127-10 48.266-1.112 105.43 1.107 156 1 50.57-.107 94.546-2.54 146 1 51.454 3.54 110.387 13.052 155 11 44.613-2.052 74.905-15.668 120-20 45.095-4.332 104.991.62 152 8s81.13 17.191 128 16c46.87-1.191 106.487-13.384 156-19 49.513-5.616 88.92-4.653 136 4 47.08 8.653 101.83 24.998 153 22 51.17-2.998 98.757-25.34 146-28 47.243-2.66 94.142 14.36 141 17 46.858 2.64 93.674-9.103 141-12 47.326-2.897 95.163 3.052 183 9l-40 402H0Z" fill="url(#i)"/><path d="M0 803c46.073 8.933 92.145 17.867 139 17 46.855-.867 94.492-11.534 141-18 46.508-6.466 91.887-8.73 142-7 50.113 1.73 104.96 7.455 158 13 53.04 5.545 104.273 10.91 149 6 44.727-4.91 82.948-20.095 130-18 47.052 2.095 102.936 21.472 154 24 51.064 2.528 97.307-11.791 144-11 46.693.791 93.836 16.693 140 11 46.164-5.693 91.35-32.981 135-35 43.65-2.019 85.762 21.232 134 25 48.238 3.768 102.603-11.947 155-20 52.397-8.053 102.828-8.444 149-5 46.172 3.444 88.086 10.722 170 18l-40 322H0Z" fill="url(#j)"/><path d="M0 883c53.818-3.753 107.635-7.505 156-6 48.365 1.505 91.277 8.269 133 7 41.723-1.269 82.256-10.57 133-6s111.699 23.01 163 23c51.301-.01 92.948-18.468 132-25 39.052-6.532 75.508-1.137 128 3 52.492 4.137 121.018 7.014 169 13s75.42 15.079 119 9c43.58-6.079 103.305-27.33 152-28 48.695-.67 86.36 19.24 131 24 44.64 4.76 96.254-5.631 144-8 47.746-2.369 91.624 3.285 141 4 49.376.715 104.25-3.51 155-6s97.375-3.245 184-4l-40 242H0Z" fill="url(#k)"/><path d="M0 964c54.246 1.105 108.493 2.21 153 4 44.507 1.79 79.275 4.263 126 6 46.725 1.737 105.406 2.736 158-2 52.594-4.736 99.102-15.208 140-17 40.898-1.792 76.187 5.095 122 13s102.151 16.826 156 12c53.849-4.826 105.209-23.401 152-27s89.014 7.778 137 11c47.986 3.222 101.736-1.713 152-6 50.264-4.287 97.043-7.928 142-3 44.957 4.928 88.092 18.424 137 17 48.908-1.424 103.59-17.768 148-24 44.41-6.232 78.546-2.352 123 2 44.454 4.352 99.227 9.176 194 14l-40 161H0Z" fill="url(#l)"/><path d="M0 1044c50.341-2.68 100.682-5.359 148-6s91.612.756 139 3c47.388 2.244 97.868 5.334 143 9 45.132 3.666 84.916 7.91 132 9 47.084 1.09 101.468-.97 154-7s103.212-16.028 151-13c47.788 3.028 92.682 19.082 134 16 41.318-3.082 79.058-25.3 129-26 49.942-.7 112.087 20.115 161 24 48.913 3.885 84.596-9.16 128-9 43.404.16 94.531 13.528 148 15 53.469 1.472 109.28-8.95 160-9 50.72-.05 96.349 10.271 141 11 44.651.729 88.326-8.136 172-17l-40 81H0Z" fill="url(#m)"/></svg>